# xmcd
#
# Track frame offsets:
#	150
#	20129
#	52181
#	73281
#	86793
#	107591
#	133178
#	156210
#	173805
#	192466
#
# Disc length: 2786 seconds
#
# Revision: 0
# Processed by: cddbd v1.5.1PL2 Copyright (c) Steve Scherf et al.
# Submitted via: dBpowerAMP V4.0
#
DISCID=970ae00a
DTITLE=Keller Williams and The Keels - Grass
DYEAR=2005
DGENRE=Bluegrass
TTITLE0=Goof Balls
TTITLE1=Another Brick in the Wall
TTITLE2=Mary Jane's Last Breakdown
TTITLE3=Stunt Double
TTITLE4=New Horizons
TTITLE5=Loser
TTITLE6=Crater in the Backyard
TTITLE7=Dupree's Diamond Blues
TTITLE8=Local
TTITLE9=I'm Just Here to Get My Baby Out of Jail
EXTD=Keller Williams' self released album GRASS is a delightfully bizarre collection of anything-but-traditional bluegrass songs. Like most recordings from Keller, GRASS is self indulgent and possibly offensive to those who lack a sense of humor, but Ke
EXTD=ller had a damn good time recording it.\nFor the project Keller teamed up with old buddy and award-winning flat picker Larry Keel on guitar, and Larry's beautiful rock-solid in-the-pocket acoustic bass playing wife, Jenny Keel. The result is an org
EXTD=anic and airy acoustic record featuring 10 songs, originals and unexpected cover tunes, that yield to a pure love of music. GRASS makes it better.\n
EXTT0=
EXTT1=
EXTT2=
EXTT3=
EXTT4=
EXTT5=
EXTT6=
EXTT7=
EXTT8=
EXTT9=
PLAYORDER=
